<svg width="144" height="46" viewBox="0 0 144 46" fill="none" xmlns="http://www.w3.org/2000/svg">
<path d="M45.2216 22.5066H41.9473L41.9457 22.2867C41.8694 11.747 33.2016 3.1723 22.6239 3.1723C12.0462 3.1723 3.37845 11.747 3.30208 22.2867L3.30052 22.5066H0L0.00246617 22.2828C0.0679713 16.3162 2.44887 10.7173 6.70654 6.51751C10.9673 2.31457 16.6156 -1.90735e-06 22.6109 -1.90735e-06C28.6061 -1.90735e-06 34.2544 2.31457 38.5152 6.51751C42.7729 10.7173 45.1538 16.3162 45.2193 22.2828L45.2216 22.5066Z" fill="white"/>
<path d="M17.3609 17.3977V39.7914H17.0396C16.4372 39.599 15.8483 39.3763 15.2749 39.1251V17.3977H17.3609Z" fill="white"/>
<path fill-rule="evenodd" clip-rule="evenodd" d="M14.7949 17.6102V38.9062C14.3147 38.6791 13.8462 38.4317 13.39 38.165V18.5989L14.7949 17.6102Z" fill="white"/>
<path fill-rule="evenodd" clip-rule="evenodd" d="M13.0071 18.8688V37.9348C12.5233 37.6358 12.0545 37.315 11.6021 36.9736V19.8576L13.0071 18.8688Z" fill="white"/>
<path fill-rule="evenodd" clip-rule="evenodd" d="M11.1766 20.157V36.642C10.8403 36.3722 10.5138 36.0908 10.1975 35.7983V20.8461L11.1766 20.157Z" fill="white"/>
<path fill-rule="evenodd" clip-rule="evenodd" d="M9.85494 21.0874L9.84761 35.4662C9.20235 34.8371 8.60384 34.1607 8.0575 33.4426V21.123L8.0779 21.0874H9.85494Z" fill="white"/>
<path fill-rule="evenodd" clip-rule="evenodd" d="M7.58938 21.4233V32.7986C7.11685 32.1177 6.68967 31.4032 6.31219 30.6595V22.128L7.01925 21.4233H7.58938Z" fill="white"/>
<path fill-rule="evenodd" clip-rule="evenodd" d="M5.84357 22.5262V29.6622C5.23855 28.2653 4.80421 26.7779 4.56647 25.2259V22.8928L4.9976 22.5261L5.84357 22.5262Z" fill="white"/>
<path fill-rule="evenodd" clip-rule="evenodd" d="M35.2746 15.5461V35.5756C34.5493 36.2711 33.7662 36.9073 32.9333 37.4764V15.435H35.2025L35.2746 15.5461Z" fill="white"/>
<path fill-rule="evenodd" clip-rule="evenodd" d="M37.4571 18.9093V33.0656C36.9272 33.8007 36.3435 34.4949 35.7119 35.1423V16.2198L37.4571 18.9093Z" fill="white"/>
<path fill-rule="evenodd" clip-rule="evenodd" d="M37.8828 32.4487V21.7164L39.2026 21.9119V30.0841C38.8206 30.9074 38.3789 31.6975 37.8828 32.4487Z" fill="white"/>
<path fill-rule="evenodd" clip-rule="evenodd" d="M39.5859 29.1965V21.9687L40.8801 22.1604L40.8789 22.4565C40.8789 24.8376 40.4201 27.1121 39.5859 29.1965Z" fill="white"/>
<path d="M22.3907 8.18462V40.6549C20.8769 40.6366 19.4078 40.4346 18.0041 40.0705V12.9384H18.6544V8.18462H20.2153V9.61068H21.4731V8.18462H22.3907Z" fill="white"/>
<path d="M27.0345 7.01772H27.6087V8.63815H28.8443V7.01764H30.0152V8.70299H30.9258V7.4235L32.1183 7.42342V38.0021C29.5828 39.5446 26.6405 40.4882 23.4892 40.6357V8.11962H24.3997V9.61044H25.7005V8.24931C25.7005 8.24931 25.4531 7.29751 27.0345 7.01772Z" fill="white"/>
<path d="M42.1133 23.7709L42.6776 23.8203L42.6143 24.5425L42.05 24.4932L42.1133 23.7709ZM42.9182 23.8413L44.8366 24.0092L44.7735 24.7314L42.8551 24.5635L42.9182 23.8413ZM43.5018 28.6439L43.3163 28.6078L43.4763 27.785C43.6052 27.8075 43.6961 27.7957 43.7486 27.7495C43.7925 27.7093 43.8271 27.6224 43.8531 27.489L44.0491 26.4809C44.0697 26.3745 44.073 26.2918 44.059 26.2328C44.0386 26.1519 43.983 26.1027 43.8915 26.0848C43.7926 26.0656 43.7177 26.0946 43.6668 26.1719C43.6443 26.2086 43.6152 26.2927 43.5794 26.4242C43.5502 26.5339 43.4967 26.7902 43.4183 27.1929C43.3534 27.5265 43.2997 27.7571 43.2571 27.8847C43.153 28.1953 43.0214 28.3774 42.8623 28.431C42.7554 28.4667 42.5821 28.4612 42.3423 28.4147C42.0458 28.357 41.8519 28.2667 41.7604 28.1438C41.624 27.9609 41.6015 27.6347 41.6928 27.1652L41.9162 26.0162C42.0007 25.5814 42.1303 25.304 42.3049 25.1841C42.4347 25.0965 42.6368 25.0793 42.9111 25.1326L42.8364 25.9721C42.7301 25.9514 42.6559 25.9575 42.6136 25.9903C42.559 26.0335 42.5147 26.1428 42.4806 26.3183L42.3032 27.2301C42.263 27.4377 42.3119 27.5548 42.4504 27.5818C42.5444 27.6 42.614 27.5777 42.6597 27.5147C42.6867 27.4815 42.7153 27.4063 42.7457 27.2891C42.7657 27.2135 42.8099 26.999 42.8784 26.6457C42.9711 26.1687 43.0495 25.8455 43.1133 25.6758C43.1984 25.4488 43.3163 25.3037 43.467 25.2407C43.5976 25.1891 43.7889 25.1879 44.0409 25.2368C44.2707 25.2816 44.4342 25.3441 44.5314 25.4246C44.6554 25.5255 44.72 25.6817 44.725 25.893C44.7299 26.0785 44.6956 26.3604 44.6222 26.7384L44.4284 27.7354C44.3611 28.0813 44.2778 28.319 44.1783 28.4484C44.0335 28.6383 43.8082 28.7034 43.5018 28.6439ZM42.6837 32.4074L40.149 31.3834L41.2691 28.6108L41.8573 28.8484L41.0511 30.844L41.4572 31.008L42.221 29.1175L42.7462 29.3297L41.9823 31.2201L42.3885 31.3841L43.2132 29.3432L43.8221 29.5893L42.6837 32.4074ZM41.292 34.9496L40.485 34.4454L38.1712 34.785L38.7075 33.9268L40.1434 33.7378L39.6839 32.3643L40.22 31.5062L40.9292 33.7346L41.7362 34.2387L41.292 34.9496ZM37.8858 34.7298L38.3261 35.0862L37.8698 35.6497L37.4297 35.2932L37.8858 34.7298ZM38.5137 35.2383L40.0103 36.4502L39.5542 37.0135L38.0575 35.8017L38.5137 35.2383ZM35.7215 38.1221L36.6435 39.1107L37.7315 38.0961C37.8677 37.9691 37.9384 37.8549 37.9438 37.7535C37.9474 37.6504 37.8866 37.5316 37.7613 37.3973L37.5089 37.1266C37.38 36.9885 37.2658 36.9195 37.1662 36.9196C37.0665 36.9161 36.9477 36.9788 36.8096 37.1076L35.7215 38.1221ZM36.5093 40.1959L34.645 38.1967L36.4951 36.4715C36.7767 36.2088 37.0214 36.065 37.2288 36.0402C37.4757 36.0097 37.7236 36.1279 37.9725 36.3948L38.5391 37.0023C38.7879 37.2692 38.8886 37.5247 38.8409 37.7689C38.8017 37.9741 38.6412 38.2079 38.3596 38.4706L36.5093 40.1959ZM33.2153 42.3703L31.7666 40.052L34.3026 38.4673L34.6387 39.0053L32.8136 40.1458L33.0457 40.5172L34.7748 39.4368L35.075 39.9171L33.3459 40.9975L33.578 41.369L35.4448 40.2025L35.793 40.7596L33.2153 42.3703ZM30.2297 43.6523L29.1178 41.1549L29.8836 40.814L30.7097 42.6698L32.4311 41.9035L32.7167 42.5449L30.2297 43.6523ZM26.5592 44.654L25.8979 42.0016L28.7994 41.2782L28.953 41.8937L26.8648 42.4143L26.9707 42.8393L28.9489 42.346L29.0859 42.8956L27.1076 43.3888L27.2137 43.8138L29.3494 43.2813L29.5085 43.9187L26.5592 44.654ZM22.8579 42.9391L22.8877 43.3647L24.3679 43.2612C24.5312 43.2498 24.6077 43.1738 24.5979 43.0332C24.5881 42.8901 24.5013 42.8242 24.3381 42.8357L22.8579 42.9391ZM22.9272 43.9297L22.957 44.3554L24.4562 44.2505C24.6568 44.2365 24.7527 44.1629 24.7434 44.0297C24.7328 43.8791 24.6272 43.8108 24.4262 43.8248L22.9272 43.9297ZM22.1666 45.0691L21.9759 42.3422L24.3827 42.1739C24.6941 42.1521 24.9268 42.1775 25.0807 42.25C25.2895 42.3465 25.4035 42.5364 25.4234 42.8203C25.4384 43.0337 25.4115 43.1908 25.3427 43.2914C25.2948 43.3629 25.2018 43.4237 25.064 43.4736C25.2547 43.4944 25.3926 43.5529 25.4785 43.6604C25.5532 43.7562 25.5975 43.9032 25.6114 44.1016C25.6304 44.3727 25.5697 44.5701 25.4294 44.6934C25.3083 44.8003 25.1083 44.8634 24.8295 44.8829L22.1666 45.0691ZM16.0861 43.176L16.2555 42.3784C16.3351 42.0041 16.4988 41.766 16.7469 41.6645C16.9505 41.579 17.2478 41.5779 17.6393 41.6611L18.8727 41.9233C19.3038 42.0149 19.5801 42.1548 19.7025 42.3428C19.7973 42.4891 19.8134 42.7637 19.7507 43.0591L18.9276 42.9193C18.9554 42.7888 18.9329 42.694 18.8605 42.6348C18.8121 42.5962 18.7179 42.562 18.5776 42.5322L17.6874 42.343C17.4757 42.298 17.3272 42.3064 17.242 42.368C17.1592 42.4301 17.0946 42.5708 17.0481 42.79L16.9774 43.1224C16.9309 43.3415 16.9328 43.4962 16.9831 43.5868C17.0357 43.6777 17.1679 43.7457 17.3796 43.7908L18.255 43.9768C18.5404 44.0376 18.7041 43.9706 18.7454 43.776L17.7425 43.4818L17.8603 42.9279L19.6995 43.3189L19.5378 44.0796C19.462 44.4366 19.3082 44.6446 19.0771 44.7035C18.9057 44.7469 18.5616 44.7136 18.0446 44.6036L17.0584 44.394C16.6694 44.3113 16.3982 44.1894 16.2446 44.0281C16.0597 43.8319 16.0069 43.5478 16.0861 43.176ZM14.2932 41.142L13.3925 41.8652L14.3722 42.3013L14.2932 41.142ZM11.5906 42.2367L14.0546 40.3414L15.0513 40.7852L15.3123 43.8937L14.4603 43.5144L14.4189 42.9669L12.8665 42.2758L12.4459 42.6174L11.5906 42.2367ZM9.9499 38.5216L9.15537 39.6152L10.3589 40.4897C10.5096 40.5991 10.6352 40.6468 10.7357 40.6327C10.8377 40.6166 10.9427 40.5342 11.0507 40.3855L11.2681 40.0862C11.3791 39.9334 11.425 39.8081 11.406 39.7102C11.3903 39.6117 11.3061 39.507 11.1534 39.3961L9.9499 38.5216ZM8.06441 39.6906L9.67118 37.4791L11.718 38.966C12.0294 39.1924 12.2172 39.4051 12.2812 39.604C12.3584 39.8405 12.2896 40.1063 12.0751 40.4016L11.5868 41.0737C11.3722 41.369 11.1407 41.5165 10.8918 41.5162C10.6829 41.5168 10.4227 41.404 10.1111 41.1776L8.06441 39.6906ZM4.76677 36.4061L6.76599 34.5418L7.65179 35.4918L7.27308 37.9978C8.72555 36.6433 8.73073 36.6488 8.73073 36.6488L9.30242 37.2618L7.30312 39.1262L6.41732 38.1762L6.79603 35.6702C5.34356 37.0247 5.33838 37.0192 5.33838 37.0192L4.76677 36.4061ZM3.79349 35.1108L6.03276 33.5429L6.5136 34.2296L4.27425 35.7975L3.79349 35.1108ZM3.79391 30.8415L4.39407 30.5224L5.89361 33.3429L5.29353 33.662L4.74052 32.6217L2.92695 33.586L2.53343 32.846L4.347 31.8817L3.79391 30.8415ZM0.9525 28.8489L3.53724 27.959L3.81012 28.7516L1.8894 29.4129L2.50273 31.1943L1.83879 31.423L0.9525 28.8489ZM2.4908 25.9405L1.39375 25.5791L1.56147 26.6381L2.4908 25.9405ZM0.100769 24.27L3.03237 25.3043L3.20296 26.382L0.738044 28.2939L0.592221 27.3728L1.0287 27.0399L0.762979 25.3617L0.24725 25.195L0.100769 24.27ZM17.5409 41.0362L19.1173 41.3836L19.0317 41.7677L17.4553 41.4204L17.5409 41.0362Z" fill="white"/>
<path d="M52.1407 13.3616H49.3954V11.3158H57.5256V13.3616H54.7672V21.0826H52.1407V13.3616Z" fill="white"/>
<path d="M58.8719 21.2014C58.4317 21.2014 58.0866 21.0935 57.8358 20.878C57.5849 20.6626 57.4596 20.3261 57.4596 19.8684C57.4596 19.4021 57.5849 19.0655 57.8358 18.8587C58.0866 18.6521 58.4317 18.5485 58.8719 18.5485C59.3206 18.5485 59.6724 18.6521 59.9277 18.8587C60.1829 19.0655 60.3104 19.4021 60.3104 19.8684C60.3104 20.3261 60.1829 20.6626 59.9277 20.878C59.6724 21.0935 59.3206 21.2014 58.8719 21.2014Z" fill="white"/>
<path d="M66.144 21.2543C64.4281 21.2543 63.1566 20.8431 62.3297 20.0202C61.5025 19.1976 61.0891 17.9282 61.0891 16.2125C61.0891 14.488 61.4894 13.2121 62.29 12.385C63.0906 11.558 64.3094 11.1443 65.946 11.1443C66.2539 11.1443 66.5927 11.1597 66.9623 11.1905C67.3318 11.2214 67.7675 11.272 68.2689 11.3423V13.4276C67.9871 13.4012 67.7496 13.3771 67.5563 13.355C67.3626 13.3332 67.1887 13.3177 67.0349 13.3088C66.8808 13.3002 66.7446 13.2935 66.6259 13.289C66.507 13.2847 66.3903 13.2825 66.276 13.2825C65.7832 13.2825 65.3785 13.3243 65.0616 13.4078C64.7451 13.4915 64.492 13.6433 64.3029 13.8632C64.1135 14.0832 63.9815 14.3824 63.9069 14.7606C63.832 15.1391 63.7947 15.6231 63.7947 16.2125C63.7947 16.7845 63.832 17.2574 63.9069 17.6312C63.9815 18.0054 64.1116 18.3024 64.2963 18.5222C64.4811 18.7423 64.7317 18.894 65.0485 18.9775C65.3654 19.0613 65.7614 19.1029 66.2364 19.1029C66.377 19.1029 66.542 19.0985 66.7313 19.0897C66.9205 19.0811 67.1074 19.0678 67.2923 19.0501C67.477 19.0326 67.6553 19.0151 67.8268 18.9973C67.9985 18.9798 68.1456 18.9577 68.2689 18.9313V21.0166C67.9434 21.0871 67.5958 21.1442 67.2262 21.1883C66.8568 21.2321 66.4958 21.2543 66.144 21.2543Z" fill="white"/>
<path d="M70.592 21.2014C70.1518 21.2014 69.8067 21.0935 69.5558 20.878C69.305 20.6626 69.1797 20.3261 69.1797 19.8684C69.1797 19.4021 69.305 19.0655 69.5558 18.8587C69.8067 18.6521 70.1518 18.5485 70.592 18.5485C71.0407 18.5485 71.3925 18.6521 71.6478 18.8587C71.903 19.0655 72.0305 19.4021 72.0305 19.8684C72.0305 20.3261 71.903 20.6626 71.6478 20.878C71.3925 21.0935 71.0407 21.2014 70.592 21.2014Z" fill="white"/>
<path d="M81.1501 16.8988L80.5957 15.1037L80.0019 13.124H79.7908L79.2101 15.1169L78.6557 16.8988H81.1501ZM74.8413 20.9506L77.9562 11.3159H81.8496L84.9645 20.9506V21.0826H82.4173L81.7441 18.9181H78.0486L77.3887 21.0826H74.8413V20.9506Z" fill="white"/>
<path d="M85.7958 11.3159H88.4356V19.0633H92.5271V21.0826H85.7958V11.3159Z" fill="white"/>
<path d="M94.3353 13.3616H91.59V11.3158H99.7202V13.3616H96.9618V21.0826H94.3353V13.3616Z" fill="white"/>
<path d="M100.842 11.3159H103.481V21.0826H100.842V11.3159Z" fill="white"/>
<path d="M105.224 11.3159H107.309L111.15 16.0936L111.928 17.2024H112.047V11.3159H114.344V21.0826H112.271L108.536 16.4105L107.652 15.1962H107.52V21.0826H105.224V11.3159Z" fill="white"/>
<path d="M120.111 19.1556C120.56 19.1556 120.936 19.1074 121.239 19.0105C121.543 18.9138 121.785 18.7511 121.965 18.5222C122.146 18.2935 122.276 17.9922 122.355 17.618C122.434 17.2442 122.473 16.7757 122.473 16.2125C122.473 15.6581 122.432 15.1942 122.348 14.8201C122.265 14.4462 122.126 14.1426 121.932 13.9094C121.739 13.6763 121.484 13.5113 121.167 13.4144C120.85 13.3177 120.458 13.2692 119.992 13.2692C119.816 13.2692 119.629 13.2738 119.431 13.2824C119.233 13.2913 118.998 13.3088 118.725 13.3352V19.0501C118.954 19.0854 119.185 19.1117 119.418 19.1293C119.651 19.147 119.882 19.1556 120.111 19.1556ZM119.082 21.2278C118.545 21.2278 118.01 21.2123 117.478 21.1817C116.946 21.1507 116.486 21.109 116.099 21.0563V11.3423C116.873 11.2895 117.544 11.2499 118.112 11.2235C118.679 11.1971 119.174 11.1839 119.596 11.1839C120.573 11.1839 121.411 11.2808 122.111 11.4743C122.81 11.6679 123.386 11.9692 123.84 12.3783C124.293 12.7874 124.627 13.3088 124.843 13.9424C125.058 14.5759 125.166 15.3327 125.166 16.2125C125.166 17.1099 125.054 17.8754 124.829 18.509C124.605 19.1425 124.249 19.6618 123.76 20.0664C123.272 20.4712 122.643 20.7659 121.873 20.9507C121.103 21.1355 120.173 21.2278 119.082 21.2278Z" fill="white"/>
<path d="M131.659 16.8988L131.105 15.1037L130.511 13.124H130.3L129.719 15.1169L129.165 16.8988H131.659ZM125.351 20.9506L128.465 11.3159H132.359L135.474 20.9506V21.0826H132.927L132.253 18.9181H128.558L127.898 21.0826H125.351V20.9506Z" fill="white"/>
<path d="M140.344 10.4316C139.79 10.4316 139.321 10.3701 138.938 10.2468C138.556 10.1237 138.246 9.9544 138.008 9.73862C137.77 9.52318 137.599 9.26585 137.493 8.96655C137.388 8.66758 137.335 8.34195 137.335 7.9899H139.037C139.037 8.40359 139.127 8.71153 139.308 8.9138C139.488 9.11624 139.834 9.21738 140.344 9.21738C140.854 9.21738 141.2 9.11624 141.38 8.9138C141.56 8.71153 141.651 8.40359 141.651 7.9899H143.353C143.353 8.35084 143.301 8.67853 143.195 8.97322C143.089 9.26816 142.918 9.52549 142.68 9.74529C142.443 9.96534 142.132 10.1346 141.75 10.2534C141.367 10.3722 140.898 10.4316 140.344 10.4316ZM140.714 21.2543C138.998 21.2543 137.724 20.8408 136.893 20.0136C136.061 19.1867 135.645 17.9196 135.645 16.2125C135.645 12.8337 137.418 11.1443 140.964 11.1443C141.44 11.1443 141.943 11.173 142.476 11.2302C143.008 11.2875 143.472 11.3644 143.868 11.461V13.5465C143.287 13.4497 142.773 13.3814 142.324 13.3418C141.875 13.3023 141.492 13.2825 141.176 13.2825C140.612 13.2825 140.148 13.3266 139.783 13.4144C139.418 13.5025 139.13 13.6586 138.919 13.883C138.708 14.1074 138.56 14.4066 138.477 14.7805C138.393 15.1546 138.351 15.6318 138.351 16.2125C138.351 16.7845 138.389 17.2552 138.463 17.6247C138.538 17.9943 138.67 18.2892 138.859 18.509C139.048 18.7291 139.301 18.8832 139.618 18.971C139.935 19.059 140.335 19.103 140.819 19.103C141.013 19.103 141.167 19.1008 141.281 19.0963C141.396 19.092 141.501 19.0854 141.598 19.0766V16.1201H144V20.7528C143.727 20.8232 143.443 20.8892 143.149 20.9507C142.854 21.0124 142.563 21.0652 142.278 21.109C141.991 21.153 141.714 21.1883 141.446 21.2146C141.178 21.2411 140.934 21.2543 140.714 21.2543Z" fill="white"/>
<path d="M54.0411 35.2051C54.6394 35.2051 55.0772 35.1084 55.3544 34.9147C55.6316 34.7213 55.7702 34.4132 55.7702 33.9908C55.7702 33.5685 55.6401 33.2695 55.3808 33.0933C55.1211 32.9175 54.6833 32.8293 54.0674 32.8293H52.5233V35.1523C52.5847 35.17 52.6508 35.1809 52.7214 35.1853C52.7915 35.1898 52.8817 35.1941 52.9918 35.1985C53.1019 35.203 53.2405 35.2051 53.4076 35.2051H54.0411ZM53.8828 31.14C54.4721 31.14 54.8859 31.0542 55.1234 30.8826C55.361 30.7111 55.4797 30.4141 55.4797 29.9917C55.4797 29.5783 55.3565 29.2856 55.1101 29.114C54.8637 28.9425 54.4503 28.8567 53.8696 28.8567C53.6142 28.8567 53.3723 28.8633 53.1437 28.8765C52.9147 28.8897 52.7081 28.914 52.5233 28.9491V31.14H53.8828ZM54.0807 37.0529C53.4031 37.0529 52.7388 37.0374 52.0877 37.0066C51.4366 36.9757 50.7458 36.9252 50.0156 36.8549V27.2201C50.702 27.1497 51.3464 27.0993 51.9491 27.0683C52.5518 27.0376 53.1437 27.0221 53.7244 27.0221C55.2376 27.0221 56.342 27.2465 57.0372 27.6952C57.7321 28.144 58.0798 28.848 58.0798 29.807C58.0798 30.8981 57.5209 31.5888 56.4037 31.8791V31.9319C57.0459 32.0552 57.5388 32.3126 57.8818 32.704C58.225 33.0956 58.3965 33.6081 58.3965 34.2417C58.3965 35.2008 58.0468 35.9092 57.3473 36.3665C56.6478 36.8241 55.5591 37.0529 54.0807 37.0529Z" fill="white"/>
<path d="M59.6637 27.1539H67.0416V29.1864H62.3035V31.0078H66.5796V33.0404H62.3035V34.8881H67.1737V36.9207H59.6637V27.1539Z" fill="white"/>
<path d="M68.5193 27.1539H71.1591V34.9014H75.2507V36.9207H68.5193V27.1539Z" fill="white"/>
<path d="M76.2932 27.1539H83.671V29.1864H78.9329V31.0078H83.209V33.0404H78.9329V34.8881H83.8031V36.9207H76.2932V27.1539Z" fill="white"/>
<path d="M89.1616 34.9938C89.6103 34.9938 89.9864 34.9456 90.29 34.8486C90.5935 34.7518 90.8354 34.5892 91.0158 34.3603C91.1961 34.1316 91.3262 33.8303 91.4052 33.4561C91.4846 33.0824 91.5241 32.6138 91.5241 32.0507C91.5241 31.4963 91.4822 31.0323 91.3987 30.6582C91.315 30.2843 91.1765 29.9808 90.9829 29.7475C90.7892 29.5144 90.5342 29.3495 90.2174 29.2525C89.9008 29.1558 89.509 29.1074 89.0429 29.1074C88.8666 29.1074 88.6798 29.1119 88.4819 29.1205C88.2839 29.1294 88.0483 29.147 87.7757 29.1733V34.8882C88.0045 34.9235 88.2355 34.9498 88.4686 34.9675C88.7017 34.9851 88.9326 34.9938 89.1616 34.9938ZM88.1322 37.0659C87.5952 37.0659 87.0607 37.0504 86.5286 37.0198C85.996 36.9888 85.5364 36.9472 85.1492 36.8944V27.1804C85.9235 27.1277 86.5944 27.088 87.1621 27.0616C87.7295 27.0352 88.2246 27.0221 88.6469 27.0221C89.6236 27.0221 90.4617 27.1189 91.1612 27.3124C91.8606 27.506 92.4369 27.8073 92.8901 28.2165C93.3431 28.6256 93.6775 29.147 93.8932 29.7805C94.1087 30.414 94.2165 31.1709 94.2165 32.0507C94.2165 32.9481 94.1044 33.7136 93.8799 34.3471C93.6556 34.9806 93.2994 35.4999 92.811 35.9045C92.3226 36.3093 91.6933 36.604 90.9235 36.7888C90.1536 36.9736 89.2231 37.0659 88.1322 37.0659Z" fill="white"/>
<path d="M95.5495 27.1539H98.1893V36.9207H95.5495V27.1539ZM96.8827 26.3752C96.3811 26.3752 96.0248 26.2696 95.8136 26.0584C95.6024 25.8472 95.4968 25.5041 95.4968 25.0289C95.4968 24.5539 95.6024 24.2106 95.8136 23.9994C96.0248 23.7883 96.3811 23.6827 96.8827 23.6827C97.3842 23.6827 97.7406 23.7906 97.9518 24.0061C98.163 24.2218 98.2685 24.5627 98.2685 25.0289C98.2685 25.4954 98.163 25.8362 97.9518 26.0518C97.7406 26.2675 97.3842 26.3752 96.8827 26.3752Z" fill="white"/>
<path d="M102.637 33.8455L98.9279 27.1539H101.792L103.455 30.4403L103.864 31.4829H103.996L104.405 30.4403L106.082 27.1539H108.932L105.263 33.7663V36.9207H102.637V33.8455Z" fill="white"/>
<path d="M109.685 27.1539H117.062V29.1864H112.324V31.0078H116.6V33.0404H112.324V34.8881H117.195V36.9207H109.685V27.1539Z" fill="white"/>
<path d="M121.853 37.0789C121.589 37.0789 121.301 37.07 120.989 37.0524C120.676 37.0347 120.36 37.0062 120.039 36.9666C119.717 36.9271 119.394 36.8832 119.068 36.8347C118.743 36.7864 118.435 36.727 118.145 36.6564V34.5447C118.822 34.6944 119.449 34.811 120.025 34.8945C120.602 34.9783 121.132 35.0199 121.616 35.0199C122.188 35.0199 122.597 34.9539 122.843 34.8219C123.089 34.6899 123.213 34.4833 123.213 34.2016C123.213 33.8762 123.074 33.6386 122.797 33.4888C122.52 33.3393 122.113 33.2206 121.576 33.1326C121.022 33.0447 120.535 32.9213 120.118 32.7629C119.7 32.6046 119.352 32.4 119.075 32.1492C118.798 31.8985 118.591 31.5949 118.455 31.2385C118.318 30.8822 118.25 30.4577 118.25 29.9649C118.25 29.0323 118.604 28.3064 119.313 27.7872C120.021 27.2682 121.009 27.0084 122.276 27.0084C122.496 27.0084 122.715 27.0151 122.936 27.0283C123.156 27.0414 123.389 27.0636 123.635 27.0943C123.881 27.1252 124.15 27.1647 124.44 27.213C124.731 27.2615 125.06 27.3209 125.43 27.3912V29.4898C124.981 29.3577 124.495 29.2522 123.972 29.173C123.448 29.0938 122.98 29.0542 122.566 29.0542C121.519 29.0542 120.995 29.3359 120.995 29.899C120.995 30.2246 121.134 30.4753 121.411 30.6512C121.688 30.8273 122.135 30.9726 122.751 31.0868C123.279 31.1837 123.743 31.3091 124.143 31.4629C124.544 31.6169 124.878 31.8084 125.146 32.037C125.415 32.266 125.617 32.5386 125.753 32.8553C125.89 33.1721 125.958 33.5463 125.958 33.9772C125.958 35.0067 125.615 35.781 124.929 36.3001C124.242 36.8194 123.217 37.0789 121.853 37.0789Z" fill="white"/>
<path d="M127.159 27.1539H129.799V36.9207H127.159V27.1539ZM128.492 26.3752C127.991 26.3752 127.634 26.2696 127.423 26.0584C127.212 25.8472 127.106 25.5041 127.106 25.0289C127.106 24.5539 127.212 24.2106 127.423 23.9994C127.634 23.7883 127.991 23.6827 128.492 23.6827C128.994 23.6827 129.35 23.7906 129.561 24.0061C129.772 24.2218 129.878 24.5627 129.878 25.0289C129.878 25.4954 129.772 25.8362 129.561 26.0518C129.35 26.2675 128.994 26.3752 128.492 26.3752Z" fill="white"/>
</svg>
