<svg width="101" height="41" viewBox="0 0 101 41" fill="none" xmlns="http://www.w3.org/2000/svg">
<path d="M0.42 17L3.48 0.799999H7.56L10.58 17H7.28L6.74 13.58H4.36L3.8 17H0.42ZM4.68 11.44H6.4L5.54 5.12L4.68 11.44ZM13.8156 17V0.799999H16.3356L19.6556 8.6V0.799999H22.6156V17H20.1956L16.8756 8.6V17H13.8156ZM26.6266 17V0.799999H29.1466L32.4666 8.6V0.799999H35.4266V17H33.0066L29.6866 8.6V17H26.6266ZM39.4375 17V0.799999H46.7175V3.24H43.0175V7.26H45.8375V9.74H43.0175V14.58H46.7575V17H39.4375ZM49.9828 17V0.799999H53.5628V14.58H57.2828V17H49.9828ZM60.45 17V0.799999H67.73V3.24H64.03V7.26H66.85V9.74H64.03V14.58H67.77V17H60.45ZM70.9953 17V0.799999H75.4553C76.5486 0.799999 77.4953 0.919999 78.2953 1.16C79.0953 1.4 79.7153 1.83333 80.1553 2.46C80.6086 3.07333 80.8353 3.94667 80.8353 5.08C80.8353 5.74667 80.782 6.34 80.6753 6.86C80.5686 7.38 80.3686 7.83333 80.0753 8.22C79.7953 8.59333 79.3886 8.90667 78.8553 9.16L81.0753 17H77.3753L75.5953 9.74H74.5753V17H70.9953ZM74.5753 7.68H75.5753C76.082 7.68 76.4753 7.59333 76.7553 7.42C77.0353 7.23333 77.2286 6.97333 77.3353 6.64C77.4553 6.29333 77.5153 5.88 77.5153 5.4C77.5153 4.70667 77.3886 4.16667 77.1353 3.78C76.882 3.39333 76.4153 3.2 75.7353 3.2H74.5753V7.68Z" fill="white"/>
<path d="M1.14 40L1.42 23.8H5.26L7.04 33.22L8.96 23.8H12.66L12.94 40H10.4L10.1 29.22L8.22 40H5.96L3.96 29.14L3.72 40H1.14ZM16.102 40L19.162 23.8H23.242L26.262 40H22.962L22.422 36.58H20.042L19.482 40H16.102ZM20.362 34.44H22.082L21.222 28.12L20.362 34.44ZM29.4977 40V23.8H33.9577C35.051 23.8 35.9977 23.92 36.7977 24.16C37.5977 24.4 38.2177 24.8333 38.6577 25.46C39.111 26.0733 39.3377 26.9467 39.3377 28.08C39.3377 28.7467 39.2843 29.34 39.1777 29.86C39.071 30.38 38.871 30.8333 38.5777 31.22C38.2977 31.5933 37.891 31.9067 37.3577 32.16L39.5777 40H35.8777L34.0977 32.74H33.0777V40H29.4977ZM33.0777 30.68H34.0777C34.5843 30.68 34.9777 30.5933 35.2577 30.42C35.5377 30.2333 35.731 29.9733 35.8377 29.64C35.9577 29.2933 36.0177 28.88 36.0177 28.4C36.0177 27.7067 35.891 27.1667 35.6377 26.78C35.3843 26.3933 34.9177 26.2 34.2377 26.2H33.0777V30.68ZM42.3098 40L45.3698 23.8H49.4498L52.4698 40H49.1698L48.6298 36.58H46.2498L45.6898 40H42.3098ZM46.5698 34.44H48.2898L47.4298 28.12L46.5698 34.44ZM56.267 40V26.46H53.827V23.8H62.287V26.46H59.867V40H56.267ZM69.797 40.24C68.5837 40.24 67.6237 40.0267 66.917 39.6C66.2104 39.1733 65.7037 38.56 65.397 37.76C65.0904 36.96 64.937 36.0067 64.937 34.9V28.88C64.937 27.76 65.0904 26.8067 65.397 26.02C65.7037 25.2333 66.2104 24.6333 66.917 24.22C67.6237 23.7933 68.5837 23.58 69.797 23.58C71.0237 23.58 71.9904 23.7933 72.697 24.22C73.417 24.6333 73.9304 25.2333 74.237 26.02C74.5437 26.8067 74.697 27.76 74.697 28.88V34.9C74.697 36.0067 74.5437 36.96 74.237 37.76C73.9304 38.56 73.417 39.1733 72.697 39.6C71.9904 40.0267 71.0237 40.24 69.797 40.24ZM69.797 37.7C70.1704 37.7 70.4437 37.6067 70.617 37.42C70.7904 37.2333 70.9037 36.9933 70.957 36.7C71.0104 36.4067 71.037 36.1067 71.037 35.8V28C71.037 27.68 71.0104 27.38 70.957 27.1C70.9037 26.8067 70.7904 26.5667 70.617 26.38C70.4437 26.1933 70.1704 26.1 69.797 26.1C69.4504 26.1 69.1904 26.1933 69.017 26.38C68.8437 26.5667 68.7304 26.8067 68.677 27.1C68.6237 27.38 68.597 27.68 68.597 28V35.8C68.597 36.1067 68.617 36.4067 68.657 36.7C68.7104 36.9933 68.817 37.2333 68.977 37.42C69.1504 37.6067 69.4237 37.7 69.797 37.7ZM78.4758 40V23.8H80.9958L84.3158 31.6V23.8H87.2758V40H84.8558L81.5358 31.6V40H78.4758ZM95.9667 40.24C94.7267 40.24 93.7534 40.04 93.0467 39.64C92.3534 39.2267 91.8667 38.6333 91.5867 37.86C91.3067 37.0733 91.1667 36.1133 91.1667 34.98V23.8H94.7067V35.52C94.7067 35.8533 94.7334 36.1867 94.7867 36.52C94.84 36.8533 94.9534 37.1267 95.1267 37.34C95.3134 37.5533 95.5934 37.66 95.9667 37.66C96.3534 37.66 96.6334 37.5533 96.8067 37.34C96.98 37.1267 97.0867 36.8533 97.1267 36.52C97.18 36.1867 97.2067 35.8533 97.2067 35.52V23.8H100.767V34.98C100.767 36.1133 100.62 37.0733 100.327 37.86C100.047 38.6333 99.56 39.2267 98.8667 39.64C98.1734 40.04 97.2067 40.24 95.9667 40.24Z" fill="#C3E92D"/>
</svg>
