<svg width="16" height="16" viewBox="0 0 16 16" fill="none" xmlns="http://www.w3.org/2000/svg">
<g clip-path="url(#clip0_16_405)">
<path fill-rule="evenodd" clip-rule="evenodd" d="M15.2699 0.202673C15.334 0.262358 15.3858 0.334096 15.4221 0.413785C15.4585 0.493474 15.4788 0.579552 15.4819 0.667098C15.485 0.754644 15.4708 0.841943 15.4402 0.924002C15.4095 1.00606 15.363 1.08127 15.3032 1.14534L9.87923 6.96201L15.8659 14.9087C15.9403 15.0077 15.9857 15.1255 15.997 15.2488C16.0082 15.3722 15.9849 15.4962 15.9296 15.607C15.8743 15.7179 15.7892 15.8111 15.6838 15.8763C15.5785 15.9414 15.4571 15.976 15.3332 15.976H11.6812C11.578 15.9761 11.4761 15.9521 11.3837 15.9061C11.2912 15.86 11.2107 15.7931 11.1486 15.7107L6.93523 10.1193L1.67257 15.764C1.61286 15.828 1.54112 15.8797 1.46145 15.916C1.38178 15.9523 1.29574 15.9726 1.20824 15.9757C1.12073 15.9787 1.03348 15.9645 0.951465 15.9339C0.86945 15.9032 0.794275 15.8567 0.730234 15.797C0.666192 15.7373 0.614539 15.6656 0.578221 15.5859C0.541904 15.5062 0.521635 15.4202 0.51857 15.3327C0.515506 15.2452 0.529707 15.1579 0.560362 15.0759C0.591017 14.9939 0.637526 14.9187 0.697234 14.8547L6.12123 9.03801L0.134567 1.09134C0.0601583 0.992386 0.0147748 0.874667 0.00350193 0.751373C-0.00777095 0.628079 0.0155122 0.504082 0.0707424 0.393276C0.125973 0.282469 0.210968 0.189231 0.316204 0.12401C0.42144 0.0587888 0.542759 0.0241608 0.666567 0.0240062H4.31923C4.42239 0.0240574 4.52413 0.0480477 4.61645 0.0940893C4.70876 0.140131 4.78913 0.206967 4.85123 0.28934L9.06457 5.88067L14.3266 0.236006C14.3863 0.171884 14.458 0.120154 14.5377 0.0837725C14.6174 0.047391 14.7034 0.0270717 14.791 0.023976C14.8785 0.0208803 14.9658 0.035069 15.0479 0.0657309C15.13 0.0963928 15.2052 0.142927 15.2692 0.202673H15.2699ZM8.50323 7.35201C8.48444 7.33026 8.46707 7.30733 8.45123 7.28334L3.98657 1.35667H2.00323L12.0132 14.6433H13.9966L8.50323 7.35201Z" fill="black"/>
</g>
<defs>
<clipPath id="clip0_16_405">
<rect width="16" height="16" fill="white"/>
</clipPath>
</defs>
</svg>
